<svg xmlns="http://www.w3.org/2000/svg" width="192" height="32" viewBox="0 0 192 32" shape-rendering="crispEdges"><g transform="translate(0 0)"><polygon points="15,15 5,9 9,16 5,23 15,19" fill="#622f38"/><polygon points="16,15 8,12 12,16 8,20 16,18" fill="#c24b4b"/><polygon points="15,9 21,7 39,7 49,9 56,13 58,17 55,21 48,26 28,27 17,25 13,19" fill="#622f38"/><polygon points="17,10 22,8 40,8 50,10 56,15 55,21 46,25 27,26 16,19" fill="#db7161"/><polygon points="22,9 44,9 52,14 48,16 27,16 20,17" fill="#f4c49b"/><polygon points="18,23 31,25 47,24 53,21 38,26 23,26" fill="#a54d55"/><polygon points="20,8 23,3 27,4 30,1 33,5 40,2 44,8" fill="#622f38"/><polygon points="23,7 27,4 29,6 34,4 41,7" fill="#c24b4b"/><polygon points="26,25 31,30 35,26 44,26 42,30 48,25" fill="#c24b4b"/><rect x="49" y="13" width="3" height="3" fill="#242b3b"/><rect x="50" y="13" width="1" height="1" fill="#f9ecdb"/><rect x="55" y="18" width="3" height="1" fill="#622f38"/><rect x="22" y="14" width="2" height="2" fill="#f5ac87"/><rect x="28" y="16" width="3" height="2" fill="#f5ac87"/><rect x="35" y="13" width="2" height="2" fill="#f5ac87"/><rect x="41" y="17" width="3" height="2" fill="#f5ac87"/><rect x="47" y="21" width="2" height="1" fill="#f4c49b"/></g><g transform="translate(64 0)"><polygon points="15,15 5,9 9,16 5,23 15,19" fill="#622f38"/><polygon points="16,15 8,12 12,16 8,20 16,18" fill="#c24b4b"/><polygon points="15,9 21,7 39,7 49,9 56,13 58,17 55,21 48,26 28,27 17,25 13,19" fill="#622f38"/><polygon points="17,10 22,8 40,8 50,10 56,15 55,21 46,25 27,26 16,19" fill="#db7161"/><polygon points="22,9 44,9 52,14 48,16 27,16 20,17" fill="#f4c49b"/><polygon points="18,23 31,25 47,24 53,21 38,26 23,26" fill="#a54d55"/><polygon points="20,8 23,3 27,4 30,1 33,5 40,2 44,8" fill="#622f38"/><polygon points="23,7 27,4 29,6 34,4 41,7" fill="#c24b4b"/><polygon points="26,25 31,30 35,26 44,26 42,30 48,25" fill="#c24b4b"/><rect x="49" y="13" width="3" height="3" fill="#242b3b"/><rect x="50" y="13" width="1" height="1" fill="#f9ecdb"/><rect x="55" y="18" width="3" height="2" fill="#622f38"/><rect x="22" y="14" width="2" height="2" fill="#f5ac87"/><rect x="28" y="16" width="3" height="2" fill="#f5ac87"/><rect x="35" y="13" width="2" height="2" fill="#f5ac87"/><rect x="41" y="17" width="3" height="2" fill="#f5ac87"/><rect x="47" y="21" width="2" height="1" fill="#f4c49b"/></g><g transform="translate(128 0)"><polygon points="15,15 5,9 9,16 5,23 15,19" fill="#622f38"/><polygon points="16,15 8,12 12,16 8,20 16,18" fill="#c24b4b"/><polygon points="15,9 21,7 39,7 49,9 56,13 58,17 55,21 48,26 28,27 17,25 13,19" fill="#622f38"/><polygon points="17,10 22,8 40,8 50,10 56,15 55,21 46,25 27,26 16,19" fill="#db7161"/><polygon points="22,9 44,9 52,14 48,16 27,16 20,17" fill="#f4c49b"/><polygon points="18,23 31,25 47,24 53,21 38,26 23,26" fill="#a54d55"/><polygon points="20,8 23,3 27,4 30,1 33,5 40,2 44,8" fill="#622f38"/><polygon points="23,7 27,4 29,6 34,4 41,7" fill="#c24b4b"/><polygon points="26,25 31,30 35,26 44,26 42,30 48,25" fill="#c24b4b"/><rect x="49" y="13" width="3" height="3" fill="#242b3b"/><rect x="50" y="13" width="1" height="1" fill="#f9ecdb"/><rect x="55" y="18" width="3" height="3" fill="#622f38"/><rect x="22" y="14" width="2" height="2" fill="#f5ac87"/><rect x="28" y="16" width="3" height="2" fill="#f5ac87"/><rect x="35" y="13" width="2" height="2" fill="#f5ac87"/><rect x="41" y="17" width="3" height="2" fill="#f5ac87"/><rect x="47" y="21" width="2" height="1" fill="#f4c49b"/></g></svg>
